<svg xmlns="http://www.w3.org/2000/svg" xmlns:xlink="http://www.w3.org/1999/xlink" viewBox="0 0 659.74 121.92"><defs><style>.cls-1{fill:#fff;}.cls-2{clip-path:url(#clip-path);}.cls-3{fill:url(#linear-gradient);}</style><clipPath id="clip-path"><path class="cls-1" d="M119.35,119.26,108.43,2.67h34l5.31,64.12L177.83,2.67H204.1l7.65,64.07L239.84,2.67h36.81L223.19,119.26H189.88L182.43,57l-29.76,62.3Z"/></clipPath><linearGradient id="linear-gradient" x1="187.3" y1="24.81" x2="148.37" y2="88.64" gradientUnits="userSpaceOnUse"><stop offset="0" stop-opacity="0"/><stop offset="1" stop-color="#1d1d1d"/></linearGradient></defs><g id="Layer_2" data-name="Layer 2"><g id="Layer_1-2" data-name="Layer 1"><path class="cls-1" d="M46.3,121.92q-19,0-30.56-7.74A38.41,38.41,0,0,1,0,92.61L28.81,77.78q5.34,13.34,20.32,13.33,11.84,0,13-6.16a4.68,4.68,0,0,0-.67-3.5A8.31,8.31,0,0,0,58,78.78c-1.66-.77-3.22-1.44-4.66-2s-3.47-1.22-6.08-2S42.58,73.4,41.14,73Q10.16,62.13,15,34.64A39.34,39.34,0,0,1,30.31,9.49Q42.81,0,60.79,0q15,0,25.65,7T102.6,27.15l-28.15,15Q70.12,30.82,58.63,30.81q-8.67,0-10,6-.68,3.66,3,6t15,6.16a83.06,83.06,0,0,1,11.91,4.75,47,47,0,0,1,9.66,6.74,21.65,21.65,0,0,1,6.67,11.16,39.43,39.43,0,0,1,.25,16q-3,17-15.74,25.65T46.3,121.92Z"/><path class="cls-1" d="M119.35,119.26,108.43,2.67h34l5.31,64.12L177.83,2.67H204.1l7.65,64.07L239.84,2.67h36.81L223.19,119.26H189.88L182.43,57l-29.76,62.3Z"/><g class="cls-2"><polygon class="cls-3" points="147.73 66.69 152.67 119.26 182.43 56.96 177.83 2.67 147.73 66.69"/></g><path class="cls-1" d="M355.44,33H313L310.8,45.64h38.31l-5.33,30H305.47l-2.33,13h43.3l-5.33,30.65H264.49L285,2.67h75.79Z"/><path class="cls-1" d="M458.53,45.14q-3.66,21.32-23.31,31.31l15,42.64H416.9l-12-36.64-10.71-.1-6.55,36.74H354.44L375.16,2.5h46.58q18.13,0,29.13,12.07T458.53,45.14Zm-55.63-12L399,54.8h13.68A11.84,11.84,0,0,0,421,52.13a12.52,12.52,0,0,0,4.25-8c.56-3.44,0-6.14-1.58-8.08s-4.08-2.91-7.41-2.91Z"/><path class="cls-1" d="M483.19,119.26,467.36,2.67h34.48l5.5,77.45L540.15,2.67h37.14L520.5,119.26Z"/><path class="cls-1" d="M654.41,33H611.94l-2.17,12.66h38.31l-5.33,30H604.44l-2.33,13h43.31l-5.33,30.65H563.47L584,2.67h75.78Z"/></g></g></svg>